<mxfile host="Electron" modified="2024-10-19T16:28:43.925Z" agent="Mozilla/5.0 (Windows NT 10.0; Win64; x64) AppleWebKit/537.36 (KHTML, like Gecko) draw.io/21.6.8 Chrome/114.0.5735.289 Electron/25.5.0 Safari/537.36" etag="7PJNvOhN4__fzmKKlRnm" version="21.6.8" type="device">
  <diagram id="C5RBs43oDa-KdzZeNtuy" name="Page-1">
    <mxGraphModel dx="1509" dy="888" grid="1" gridSize="10" guides="1" tooltips="1" connect="1" arrows="1" fold="1" page="1" pageScale="1" pageWidth="827" pageHeight="1169" math="0" shadow="0">
      <root>
        <mxCell id="WIyWlLk6GJQsqaUBKTNV-0" />
        <mxCell id="WIyWlLk6GJQsqaUBKTNV-1" parent="WIyWlLk6GJQsqaUBKTNV-0" />
        <mxCell id="-FB2nGxRPnSp2GToezw6-4" style="edgeStyle=orthogonalEdgeStyle;rounded=0;orthogonalLoop=1;jettySize=auto;html=1;exitX=0.5;exitY=1;exitDx=0;exitDy=0;entryX=0.5;entryY=0;entryDx=0;entryDy=0;" edge="1" parent="WIyWlLk6GJQsqaUBKTNV-1" source="-FB2nGxRPnSp2GToezw6-0" target="-FB2nGxRPnSp2GToezw6-2">
          <mxGeometry relative="1" as="geometry" />
        </mxCell>
        <mxCell id="-FB2nGxRPnSp2GToezw6-0" value="" style="ellipse;whiteSpace=wrap;html=1;aspect=fixed;" vertex="1" parent="WIyWlLk6GJQsqaUBKTNV-1">
          <mxGeometry x="60" y="160" width="80" height="80" as="geometry" />
        </mxCell>
        <mxCell id="-FB2nGxRPnSp2GToezw6-1" value="Inicio" style="text;html=1;strokeColor=none;fillColor=none;align=center;verticalAlign=middle;whiteSpace=wrap;rounded=0;" vertex="1" parent="WIyWlLk6GJQsqaUBKTNV-1">
          <mxGeometry x="70" y="185" width="60" height="30" as="geometry" />
        </mxCell>
        <mxCell id="-FB2nGxRPnSp2GToezw6-7" style="edgeStyle=orthogonalEdgeStyle;rounded=0;orthogonalLoop=1;jettySize=auto;html=1;exitX=0.5;exitY=1;exitDx=0;exitDy=0;entryX=0.5;entryY=0;entryDx=0;entryDy=0;" edge="1" parent="WIyWlLk6GJQsqaUBKTNV-1" source="-FB2nGxRPnSp2GToezw6-2" target="-FB2nGxRPnSp2GToezw6-5">
          <mxGeometry relative="1" as="geometry" />
        </mxCell>
        <mxCell id="-FB2nGxRPnSp2GToezw6-2" value="" style="shape=parallelogram;perimeter=parallelogramPerimeter;whiteSpace=wrap;html=1;fixedSize=1;fillColor=#fff2cc;strokeColor=#d6b656;" vertex="1" parent="WIyWlLk6GJQsqaUBKTNV-1">
          <mxGeometry x="10" y="280" width="180" height="80" as="geometry" />
        </mxCell>
        <mxCell id="-FB2nGxRPnSp2GToezw6-3" value="mostrar mensaje: &quot;Por favor, ingrese la edad del cliente: &quot;" style="text;html=1;strokeColor=none;fillColor=none;align=center;verticalAlign=middle;whiteSpace=wrap;rounded=0;" vertex="1" parent="WIyWlLk6GJQsqaUBKTNV-1">
          <mxGeometry x="40" y="305" width="120" height="30" as="geometry" />
        </mxCell>
        <mxCell id="-FB2nGxRPnSp2GToezw6-10" style="edgeStyle=orthogonalEdgeStyle;rounded=0;orthogonalLoop=1;jettySize=auto;html=1;exitX=1;exitY=0.5;exitDx=0;exitDy=0;entryX=0;entryY=0.5;entryDx=0;entryDy=0;" edge="1" parent="WIyWlLk6GJQsqaUBKTNV-1" source="-FB2nGxRPnSp2GToezw6-5" target="-FB2nGxRPnSp2GToezw6-8">
          <mxGeometry relative="1" as="geometry" />
        </mxCell>
        <mxCell id="-FB2nGxRPnSp2GToezw6-14" style="edgeStyle=orthogonalEdgeStyle;rounded=0;orthogonalLoop=1;jettySize=auto;html=1;exitX=0.5;exitY=1;exitDx=0;exitDy=0;entryX=0.5;entryY=0;entryDx=0;entryDy=0;" edge="1" parent="WIyWlLk6GJQsqaUBKTNV-1" source="-FB2nGxRPnSp2GToezw6-5" target="-FB2nGxRPnSp2GToezw6-12">
          <mxGeometry relative="1" as="geometry" />
        </mxCell>
        <mxCell id="-FB2nGxRPnSp2GToezw6-5" value="" style="rhombus;whiteSpace=wrap;html=1;fillColor=#d5e8d4;strokeColor=#82b366;" vertex="1" parent="WIyWlLk6GJQsqaUBKTNV-1">
          <mxGeometry x="30" y="400" width="140" height="120" as="geometry" />
        </mxCell>
        <mxCell id="-FB2nGxRPnSp2GToezw6-6" value="Si edad &amp;gt;= 18&amp;nbsp;" style="text;html=1;strokeColor=none;fillColor=none;align=center;verticalAlign=middle;whiteSpace=wrap;rounded=0;" vertex="1" parent="WIyWlLk6GJQsqaUBKTNV-1">
          <mxGeometry x="60" y="445" width="90" height="30" as="geometry" />
        </mxCell>
        <mxCell id="-FB2nGxRPnSp2GToezw6-23" style="edgeStyle=orthogonalEdgeStyle;rounded=0;orthogonalLoop=1;jettySize=auto;html=1;exitX=0.5;exitY=1;exitDx=0;exitDy=0;entryX=0.5;entryY=0;entryDx=0;entryDy=0;" edge="1" parent="WIyWlLk6GJQsqaUBKTNV-1" source="-FB2nGxRPnSp2GToezw6-8" target="-FB2nGxRPnSp2GToezw6-16">
          <mxGeometry relative="1" as="geometry">
            <Array as="points">
              <mxPoint x="290" y="690" />
              <mxPoint x="100" y="690" />
            </Array>
          </mxGeometry>
        </mxCell>
        <mxCell id="-FB2nGxRPnSp2GToezw6-8" value="" style="rounded=0;whiteSpace=wrap;html=1;fillColor=#dae8fc;strokeColor=#6c8ebf;" vertex="1" parent="WIyWlLk6GJQsqaUBKTNV-1">
          <mxGeometry x="220" y="420" width="140" height="80" as="geometry" />
        </mxCell>
        <mxCell id="-FB2nGxRPnSp2GToezw6-9" value="asignarle a la variable peritida que sea verdadera" style="text;html=1;strokeColor=none;fillColor=none;align=center;verticalAlign=middle;whiteSpace=wrap;rounded=0;" vertex="1" parent="WIyWlLk6GJQsqaUBKTNV-1">
          <mxGeometry x="230" y="445" width="120" height="30" as="geometry" />
        </mxCell>
        <mxCell id="-FB2nGxRPnSp2GToezw6-11" value="Si" style="text;html=1;strokeColor=none;fillColor=none;align=center;verticalAlign=middle;whiteSpace=wrap;rounded=0;" vertex="1" parent="WIyWlLk6GJQsqaUBKTNV-1">
          <mxGeometry x="160" y="430" width="60" height="30" as="geometry" />
        </mxCell>
        <mxCell id="-FB2nGxRPnSp2GToezw6-18" style="edgeStyle=orthogonalEdgeStyle;rounded=0;orthogonalLoop=1;jettySize=auto;html=1;exitX=0.5;exitY=1;exitDx=0;exitDy=0;entryX=0.5;entryY=0;entryDx=0;entryDy=0;" edge="1" parent="WIyWlLk6GJQsqaUBKTNV-1" source="-FB2nGxRPnSp2GToezw6-12" target="-FB2nGxRPnSp2GToezw6-16">
          <mxGeometry relative="1" as="geometry" />
        </mxCell>
        <mxCell id="-FB2nGxRPnSp2GToezw6-12" value="" style="rounded=0;whiteSpace=wrap;html=1;fillColor=#dae8fc;strokeColor=#6c8ebf;" vertex="1" parent="WIyWlLk6GJQsqaUBKTNV-1">
          <mxGeometry x="30" y="585" width="140" height="90" as="geometry" />
        </mxCell>
        <mxCell id="-FB2nGxRPnSp2GToezw6-13" value="asignarle a la variable permitido que sea falso" style="text;html=1;strokeColor=none;fillColor=none;align=center;verticalAlign=middle;whiteSpace=wrap;rounded=0;" vertex="1" parent="WIyWlLk6GJQsqaUBKTNV-1">
          <mxGeometry x="40" y="615" width="120" height="30" as="geometry" />
        </mxCell>
        <mxCell id="-FB2nGxRPnSp2GToezw6-15" value="No" style="text;html=1;strokeColor=none;fillColor=none;align=center;verticalAlign=middle;whiteSpace=wrap;rounded=0;" vertex="1" parent="WIyWlLk6GJQsqaUBKTNV-1">
          <mxGeometry x="100" y="540" width="40" height="30" as="geometry" />
        </mxCell>
        <mxCell id="-FB2nGxRPnSp2GToezw6-21" style="edgeStyle=orthogonalEdgeStyle;rounded=0;orthogonalLoop=1;jettySize=auto;html=1;exitX=1;exitY=0.5;exitDx=0;exitDy=0;entryX=0;entryY=0.5;entryDx=0;entryDy=0;" edge="1" parent="WIyWlLk6GJQsqaUBKTNV-1" source="-FB2nGxRPnSp2GToezw6-16" target="-FB2nGxRPnSp2GToezw6-19">
          <mxGeometry relative="1" as="geometry" />
        </mxCell>
        <mxCell id="-FB2nGxRPnSp2GToezw6-26" style="edgeStyle=orthogonalEdgeStyle;rounded=0;orthogonalLoop=1;jettySize=auto;html=1;exitX=0.5;exitY=1;exitDx=0;exitDy=0;entryX=0.5;entryY=0;entryDx=0;entryDy=0;" edge="1" parent="WIyWlLk6GJQsqaUBKTNV-1" source="-FB2nGxRPnSp2GToezw6-16" target="-FB2nGxRPnSp2GToezw6-24">
          <mxGeometry relative="1" as="geometry" />
        </mxCell>
        <mxCell id="-FB2nGxRPnSp2GToezw6-16" value="" style="rhombus;whiteSpace=wrap;html=1;fillColor=#d5e8d4;strokeColor=#82b366;" vertex="1" parent="WIyWlLk6GJQsqaUBKTNV-1">
          <mxGeometry x="20" y="720" width="160" height="140" as="geometry" />
        </mxCell>
        <mxCell id="-FB2nGxRPnSp2GToezw6-17" value="¿Está permitino el ingreso según la edad?" style="text;html=1;strokeColor=none;fillColor=none;align=center;verticalAlign=middle;whiteSpace=wrap;rounded=0;" vertex="1" parent="WIyWlLk6GJQsqaUBKTNV-1">
          <mxGeometry x="40" y="770" width="120" height="40" as="geometry" />
        </mxCell>
        <mxCell id="-FB2nGxRPnSp2GToezw6-19" value="" style="shape=parallelogram;perimeter=parallelogramPerimeter;whiteSpace=wrap;html=1;fixedSize=1;fillColor=#fff2cc;strokeColor=#d6b656;" vertex="1" parent="WIyWlLk6GJQsqaUBKTNV-1">
          <mxGeometry x="220" y="750" width="180" height="80" as="geometry" />
        </mxCell>
        <mxCell id="-FB2nGxRPnSp2GToezw6-20" value="Mostrar mensaje: &quot;¡Puedes ingresar a la discoteca!&quot;" style="text;html=1;strokeColor=none;fillColor=none;align=center;verticalAlign=middle;whiteSpace=wrap;rounded=0;" vertex="1" parent="WIyWlLk6GJQsqaUBKTNV-1">
          <mxGeometry x="250" y="775" width="120" height="30" as="geometry" />
        </mxCell>
        <mxCell id="-FB2nGxRPnSp2GToezw6-22" value="Si" style="text;html=1;strokeColor=none;fillColor=none;align=center;verticalAlign=middle;whiteSpace=wrap;rounded=0;" vertex="1" parent="WIyWlLk6GJQsqaUBKTNV-1">
          <mxGeometry x="170" y="760" width="60" height="30" as="geometry" />
        </mxCell>
        <mxCell id="-FB2nGxRPnSp2GToezw6-30" style="edgeStyle=orthogonalEdgeStyle;rounded=0;orthogonalLoop=1;jettySize=auto;html=1;exitX=0.5;exitY=1;exitDx=0;exitDy=0;entryX=0.5;entryY=0;entryDx=0;entryDy=0;" edge="1" parent="WIyWlLk6GJQsqaUBKTNV-1" source="-FB2nGxRPnSp2GToezw6-24" target="-FB2nGxRPnSp2GToezw6-28">
          <mxGeometry relative="1" as="geometry" />
        </mxCell>
        <mxCell id="-FB2nGxRPnSp2GToezw6-24" value="" style="shape=parallelogram;perimeter=parallelogramPerimeter;whiteSpace=wrap;html=1;fixedSize=1;fillColor=#fff2cc;strokeColor=#d6b656;" vertex="1" parent="WIyWlLk6GJQsqaUBKTNV-1">
          <mxGeometry y="920" width="200" height="80" as="geometry" />
        </mxCell>
        <mxCell id="-FB2nGxRPnSp2GToezw6-25" value="&amp;nbsp;Mostrar mensaje: &quot;Lo sentimos mucho, no se puede ingresar a la discoteca siendo menor de edad&quot;" style="text;html=1;strokeColor=none;fillColor=none;align=center;verticalAlign=middle;whiteSpace=wrap;rounded=0;" vertex="1" parent="WIyWlLk6GJQsqaUBKTNV-1">
          <mxGeometry x="20" y="945" width="160" height="30" as="geometry" />
        </mxCell>
        <mxCell id="-FB2nGxRPnSp2GToezw6-27" value="No" style="text;html=1;strokeColor=none;fillColor=none;align=center;verticalAlign=middle;whiteSpace=wrap;rounded=0;" vertex="1" parent="WIyWlLk6GJQsqaUBKTNV-1">
          <mxGeometry x="100" y="870" width="40" height="30" as="geometry" />
        </mxCell>
        <mxCell id="-FB2nGxRPnSp2GToezw6-28" value="" style="ellipse;whiteSpace=wrap;html=1;aspect=fixed;" vertex="1" parent="WIyWlLk6GJQsqaUBKTNV-1">
          <mxGeometry x="60" y="1040" width="80" height="80" as="geometry" />
        </mxCell>
        <mxCell id="-FB2nGxRPnSp2GToezw6-29" value="Fin" style="text;html=1;strokeColor=none;fillColor=none;align=center;verticalAlign=middle;whiteSpace=wrap;rounded=0;" vertex="1" parent="WIyWlLk6GJQsqaUBKTNV-1">
          <mxGeometry x="70" y="1065" width="60" height="30" as="geometry" />
        </mxCell>
        <mxCell id="-FB2nGxRPnSp2GToezw6-31" style="edgeStyle=orthogonalEdgeStyle;rounded=0;orthogonalLoop=1;jettySize=auto;html=1;exitX=0.5;exitY=1;exitDx=0;exitDy=0;entryX=0.5;entryY=0;entryDx=0;entryDy=0;" edge="1" parent="WIyWlLk6GJQsqaUBKTNV-1" source="-FB2nGxRPnSp2GToezw6-32" target="-FB2nGxRPnSp2GToezw6-35">
          <mxGeometry relative="1" as="geometry" />
        </mxCell>
        <mxCell id="-FB2nGxRPnSp2GToezw6-32" value="" style="ellipse;whiteSpace=wrap;html=1;aspect=fixed;" vertex="1" parent="WIyWlLk6GJQsqaUBKTNV-1">
          <mxGeometry x="500" y="160" width="80" height="80" as="geometry" />
        </mxCell>
        <mxCell id="-FB2nGxRPnSp2GToezw6-33" value="Inicio" style="text;html=1;strokeColor=none;fillColor=none;align=center;verticalAlign=middle;whiteSpace=wrap;rounded=0;" vertex="1" parent="WIyWlLk6GJQsqaUBKTNV-1">
          <mxGeometry x="510" y="185" width="60" height="30" as="geometry" />
        </mxCell>
        <mxCell id="-FB2nGxRPnSp2GToezw6-34" style="edgeStyle=orthogonalEdgeStyle;rounded=0;orthogonalLoop=1;jettySize=auto;html=1;exitX=0.5;exitY=1;exitDx=0;exitDy=0;entryX=0.5;entryY=0;entryDx=0;entryDy=0;" edge="1" parent="WIyWlLk6GJQsqaUBKTNV-1" source="-FB2nGxRPnSp2GToezw6-35" target="-FB2nGxRPnSp2GToezw6-39">
          <mxGeometry relative="1" as="geometry" />
        </mxCell>
        <mxCell id="-FB2nGxRPnSp2GToezw6-35" value="" style="shape=parallelogram;perimeter=parallelogramPerimeter;whiteSpace=wrap;html=1;fixedSize=1;fillColor=#fff2cc;strokeColor=#d6b656;" vertex="1" parent="WIyWlLk6GJQsqaUBKTNV-1">
          <mxGeometry x="450" y="280" width="180" height="80" as="geometry" />
        </mxCell>
        <mxCell id="-FB2nGxRPnSp2GToezw6-36" value="mostrar mensaje: &quot;Por favor, ingrese la edad del cliente: &quot;" style="text;html=1;strokeColor=none;fillColor=none;align=center;verticalAlign=middle;whiteSpace=wrap;rounded=0;" vertex="1" parent="WIyWlLk6GJQsqaUBKTNV-1">
          <mxGeometry x="480" y="305" width="120" height="30" as="geometry" />
        </mxCell>
        <mxCell id="-FB2nGxRPnSp2GToezw6-94" style="edgeStyle=orthogonalEdgeStyle;rounded=0;orthogonalLoop=1;jettySize=auto;html=1;exitX=1;exitY=0.5;exitDx=0;exitDy=0;entryX=0;entryY=0.5;entryDx=0;entryDy=0;" edge="1" parent="WIyWlLk6GJQsqaUBKTNV-1" source="-FB2nGxRPnSp2GToezw6-39" target="-FB2nGxRPnSp2GToezw6-53">
          <mxGeometry relative="1" as="geometry" />
        </mxCell>
        <mxCell id="-FB2nGxRPnSp2GToezw6-96" style="edgeStyle=orthogonalEdgeStyle;rounded=0;orthogonalLoop=1;jettySize=auto;html=1;exitX=0.5;exitY=1;exitDx=0;exitDy=0;entryX=0.5;entryY=0;entryDx=0;entryDy=0;" edge="1" parent="WIyWlLk6GJQsqaUBKTNV-1" source="-FB2nGxRPnSp2GToezw6-39" target="-FB2nGxRPnSp2GToezw6-57">
          <mxGeometry relative="1" as="geometry" />
        </mxCell>
        <mxCell id="-FB2nGxRPnSp2GToezw6-39" value="" style="rhombus;whiteSpace=wrap;html=1;fillColor=#d5e8d4;strokeColor=#82b366;" vertex="1" parent="WIyWlLk6GJQsqaUBKTNV-1">
          <mxGeometry x="470" y="400" width="140" height="120" as="geometry" />
        </mxCell>
        <mxCell id="-FB2nGxRPnSp2GToezw6-40" value="Si edad &amp;gt;= 18&amp;nbsp;" style="text;html=1;strokeColor=none;fillColor=none;align=center;verticalAlign=middle;whiteSpace=wrap;rounded=0;" vertex="1" parent="WIyWlLk6GJQsqaUBKTNV-1">
          <mxGeometry x="500" y="445" width="90" height="30" as="geometry" />
        </mxCell>
        <mxCell id="-FB2nGxRPnSp2GToezw6-44" value="Si" style="text;html=1;strokeColor=none;fillColor=none;align=center;verticalAlign=middle;whiteSpace=wrap;rounded=0;" vertex="1" parent="WIyWlLk6GJQsqaUBKTNV-1">
          <mxGeometry x="590" y="430" width="60" height="30" as="geometry" />
        </mxCell>
        <mxCell id="-FB2nGxRPnSp2GToezw6-97" style="edgeStyle=orthogonalEdgeStyle;rounded=0;orthogonalLoop=1;jettySize=auto;html=1;exitX=0.5;exitY=1;exitDx=0;exitDy=0;entryX=0.5;entryY=0;entryDx=0;entryDy=0;" edge="1" parent="WIyWlLk6GJQsqaUBKTNV-1" source="-FB2nGxRPnSp2GToezw6-53" target="-FB2nGxRPnSp2GToezw6-60">
          <mxGeometry relative="1" as="geometry" />
        </mxCell>
        <mxCell id="-FB2nGxRPnSp2GToezw6-53" value="" style="shape=parallelogram;perimeter=parallelogramPerimeter;whiteSpace=wrap;html=1;fixedSize=1;fillColor=#fff2cc;strokeColor=#d6b656;" vertex="1" parent="WIyWlLk6GJQsqaUBKTNV-1">
          <mxGeometry x="637" y="420" width="180" height="80" as="geometry" />
        </mxCell>
        <mxCell id="-FB2nGxRPnSp2GToezw6-54" value="Mostrar mensaje: &quot;¡Puedes ingresar a la discoteca!&quot;" style="text;html=1;strokeColor=none;fillColor=none;align=center;verticalAlign=middle;whiteSpace=wrap;rounded=0;" vertex="1" parent="WIyWlLk6GJQsqaUBKTNV-1">
          <mxGeometry x="667" y="445" width="120" height="30" as="geometry" />
        </mxCell>
        <mxCell id="-FB2nGxRPnSp2GToezw6-56" style="edgeStyle=orthogonalEdgeStyle;rounded=0;orthogonalLoop=1;jettySize=auto;html=1;exitX=0.5;exitY=1;exitDx=0;exitDy=0;entryX=0.5;entryY=0;entryDx=0;entryDy=0;" edge="1" parent="WIyWlLk6GJQsqaUBKTNV-1" source="-FB2nGxRPnSp2GToezw6-57" target="-FB2nGxRPnSp2GToezw6-60">
          <mxGeometry relative="1" as="geometry" />
        </mxCell>
        <mxCell id="-FB2nGxRPnSp2GToezw6-57" value="" style="shape=parallelogram;perimeter=parallelogramPerimeter;whiteSpace=wrap;html=1;fixedSize=1;fillColor=#fff2cc;strokeColor=#d6b656;" vertex="1" parent="WIyWlLk6GJQsqaUBKTNV-1">
          <mxGeometry x="440" y="590" width="200" height="80" as="geometry" />
        </mxCell>
        <mxCell id="-FB2nGxRPnSp2GToezw6-58" value="&amp;nbsp;Mostrar mensaje: &quot;Lo sentimos mucho, no se puede ingresar a la discoteca siendo menor de edad&quot;" style="text;html=1;strokeColor=none;fillColor=none;align=center;verticalAlign=middle;whiteSpace=wrap;rounded=0;" vertex="1" parent="WIyWlLk6GJQsqaUBKTNV-1">
          <mxGeometry x="460" y="615" width="160" height="30" as="geometry" />
        </mxCell>
        <mxCell id="-FB2nGxRPnSp2GToezw6-60" value="" style="ellipse;whiteSpace=wrap;html=1;aspect=fixed;" vertex="1" parent="WIyWlLk6GJQsqaUBKTNV-1">
          <mxGeometry x="500" y="710" width="80" height="80" as="geometry" />
        </mxCell>
        <mxCell id="-FB2nGxRPnSp2GToezw6-61" value="Fin" style="text;html=1;strokeColor=none;fillColor=none;align=center;verticalAlign=middle;whiteSpace=wrap;rounded=0;" vertex="1" parent="WIyWlLk6GJQsqaUBKTNV-1">
          <mxGeometry x="510" y="735" width="60" height="30" as="geometry" />
        </mxCell>
        <mxCell id="-FB2nGxRPnSp2GToezw6-93" value="No" style="text;html=1;strokeColor=none;fillColor=none;align=center;verticalAlign=middle;whiteSpace=wrap;rounded=0;" vertex="1" parent="WIyWlLk6GJQsqaUBKTNV-1">
          <mxGeometry x="540" y="530" width="40" height="30" as="geometry" />
        </mxCell>
        <mxCell id="-FB2nGxRPnSp2GToezw6-102" value="&lt;h1&gt;Hay dos formas de hacerlo&lt;/h1&gt;&lt;p&gt;Ambas son correctas y validas&lt;/p&gt;" style="text;html=1;strokeColor=none;fillColor=none;spacing=5;spacingTop=-20;whiteSpace=wrap;overflow=hidden;rounded=0;align=center;" vertex="1" parent="WIyWlLk6GJQsqaUBKTNV-1">
          <mxGeometry x="254" y="20" width="320" height="120" as="geometry" />
        </mxCell>
      </root>
    </mxGraphModel>
  </diagram>
</mxfile>
